<?xml version="1.0" standalone="no"?>
<!DOCTYPE svg PUBLIC "-//W3C//DTD SVG 20010904//EN"
 "http://www.w3.org/TR/2001/REC-SVG-20010904/DTD/svg10.dtd">
<svg version="1.0" xmlns="http://www.w3.org/2000/svg"
 width="512.000000pt" height="512.000000pt" viewBox="0 0 512.000000 512.000000"
 preserveAspectRatio="xMidYMid meet">
<metadata>
Created by potrace 1.14, written by Peter Selinger 2001-2017
</metadata>
<g transform="translate(0.000000,512.000000) scale(0.100000,-0.100000)"
fill="#000000" stroke="none">
<path d="M783 4822 c-31 -55 -54 -96 -117 -212 l-57 -105 -175 -94 -175 -94
118 -64 c265 -145 227 -111 320 -285 45 -84 88 -162 96 -172 15 -20 18 -14
158 249 36 68 64 94 145 136 115 60 229 121 237 129 11 10 -8 21 -265 159 -39
21 -77 49 -84 62 -8 13 -52 93 -97 176 l-83 153 -21 -38z"/>
<path d="M4282 3897 c-18 -34 -61 -113 -96 -176 -61 -111 -64 -115 -127 -148
-177 -94 -280 -156 -273 -163 5 -4 47 -28 94 -53 47 -25 121 -65 165 -90 l80
-44 94 -172 95 -172 18 23 c10 13 18 26 18 30 0 3 18 37 39 75 21 37 57 101
79 142 44 81 19 63 279 206 l113 62 -98 53 c-53 30 -117 65 -142 79 -25 13
-62 34 -82 45 -21 11 -38 22 -38 26 0 6 -174 328 -182 335 -2 2 -18 -24 -36
-58z"/>
<path d="M2255 3388 c-186 -341 -184 -339 -231 -364 -55 -29 -184 -99 -284
-154 -47 -26 -121 -66 -165 -90 -125 -67 -118 -61 -75 -84 20 -12 157 -86 303
-166 l266 -145 98 -179 c54 -98 123 -225 153 -281 92 -170 77 -166 145 -39 32
60 67 125 78 144 11 19 35 64 55 100 19 36 52 97 74 135 21 39 45 81 52 94 12
22 101 73 564 324 24 13 44 28 44 33 0 5 -62 43 -138 85 -77 41 -159 86 -184
100 -25 14 -97 53 -160 88 l-115 63 -88 162 c-48 88 -123 225 -166 304 l-78
142 -148 -272z"/>
<path d="M1244 1328 c-36 -68 -78 -145 -93 -171 -23 -43 -38 -55 -141 -111
-63 -35 -139 -76 -168 -91 -29 -15 -54 -31 -57 -35 -3 -5 39 -32 92 -61 145
-78 185 -99 220 -121 24 -14 54 -59 124 -190 103 -189 94 -184 144 -88 12 25
50 94 83 153 65 119 52 107 228 202 148 80 168 92 172 104 2 6 -1 11 -6 11 -5
0 -78 38 -162 85 -84 47 -156 85 -160 85 -4 0 -49 79 -101 175 -52 96 -97 175
-101 175 -4 0 -37 -55 -74 -122z"/>
<path d="M3519 1169 l-95 -174 -70 -38 c-105 -58 -216 -118 -246 -134 -16 -8
-28 -16 -28 -18 0 -4 192 -112 283 -160 l58 -30 95 -173 c53 -94 99 -172 102
-172 4 0 25 34 47 76 22 41 47 88 55 103 8 15 32 58 53 96 l39 70 169 90 c93
50 167 94 166 99 -2 5 -21 18 -42 30 -287 155 -300 164 -322 208 -39 75 -137
254 -154 278 -15 22 -17 19 -110 -151z"/>
</g>
</svg>
